<svg width="280" height="100" viewBox="0 0 280 100" fill="none" xmlns="http://www.w3.org/2000/svg">
<path d="M70.0547 32.656H50.5748L57.9248 45.416H70.0448C71.2117 45.416 72.3309 45.8796 73.156 46.7047C73.9812 47.5299 74.4448 48.6491 74.4448 49.816C74.4448 50.983 73.9812 52.1021 73.156 52.9273C72.3309 53.7524 71.2117 54.216 70.0448 54.216H33.7548L26.3848 66.976H70.0348C74.5859 66.976 78.9506 65.1681 82.1687 61.95C85.3868 58.7318 87.1948 54.3671 87.1948 49.816C87.1948 45.2649 85.3868 40.9002 82.1687 37.6821C78.9506 34.4639 74.5859 32.656 70.0348 32.656H70.0547Z" fill="url(#paint0_linear_102_640)"/>
<path d="M7.30418 68.836C5.02597 72.7771 4.40668 77.4618 5.58253 81.8596C6.75838 86.2573 9.63308 90.0078 13.5742 92.286C17.5153 94.5642 22.2 95.1835 26.5978 94.0077C30.9955 92.8318 34.746 89.9571 37.0242 86.016L46.7642 69.156H32.0442L25.9742 79.646C25.3819 80.6389 24.4226 81.3588 23.3038 81.65C22.1849 81.9413 20.9964 81.7804 19.9952 81.2023C18.994 80.6242 18.2606 79.6752 17.9535 78.5606C17.6464 77.446 17.7903 76.2553 18.3542 75.246L38.1942 40.916L30.8342 28.156L7.30418 68.836Z" fill="url(#paint1_linear_102_640)"/>
<path d="M37.1646 13.586C36.0385 11.6339 34.539 9.92269 32.7516 8.55012C30.9642 7.17755 28.9239 6.17047 26.7473 5.58639C24.5707 5.00231 22.3004 4.85266 20.0659 5.14599C17.8315 5.43932 15.6767 6.16988 13.7246 7.29597C11.7725 8.42205 10.0613 9.9216 8.68877 11.709C7.3162 13.4964 6.30914 15.5367 5.72506 17.7133C5.14098 19.8899 4.99133 22.1602 5.28466 24.3946C5.57799 26.6291 6.30854 28.7839 7.43462 30.736L17.1646 47.606L24.5046 34.856L18.5046 24.356C17.9212 23.3442 17.7635 22.142 18.0664 21.014C18.3693 19.886 19.1078 18.9244 20.1196 18.341C21.1314 17.7575 22.3336 17.5998 23.4616 17.9027C24.5896 18.2056 25.5512 18.9442 26.1346 19.956L30.8546 28.136L38.2146 40.896L45.8846 54.206H60.6046L37.1646 13.586Z" fill="url(#paint2_linear_102_640)"/>
<path d="M107.305 38.296C108.134 37.7256 108.916 37.0903 109.645 36.396C110.231 35.8351 110.769 35.2263 111.255 34.576H107.715V31.026H111.885L108.615 27.156L111.345 24.916L115.655 30.126L114.535 31.066H116.825V24.556H120.375V31.066H122.645L121.525 30.126L125.855 24.916L128.505 27.156L125.275 31.066H129.405V34.616H125.095L128.905 38.836L126.305 41.166L121.305 35.686L122.515 34.616H120.315V41.126H116.765V34.616H115.505C114.888 35.667 114.193 36.6698 113.425 37.616C112.247 39.0268 110.877 40.2655 109.355 41.296L107.305 38.296ZM107.485 55.806C108.737 55.5893 109.976 55.2988 111.195 54.936C112.315 54.586 113.365 54.206 114.355 53.786L109.195 51.636L111.305 47.366H107.445V43.826H113.015L114.225 41.356L117.415 42.876L116.965 43.826H129.305V47.366H126.925V49.256L126.565 49.706L125.505 50.866C124.592 51.8043 123.587 52.6486 122.505 53.386L128.875 56.036L127.505 59.306L118.795 55.676C117.268 56.4259 115.703 57.0935 114.105 57.676C112.185 58.3702 110.212 58.9053 108.205 59.276L107.485 55.806ZM118.485 51.726C119.6 51.0864 120.658 50.3503 121.645 49.526C122.236 49.0299 122.8 48.5025 123.335 47.946V47.366H115.165L113.945 49.836L118.485 51.726ZM129.255 56.076C129.462 55.8398 129.689 55.6223 129.935 55.426C130.375 55.026 130.935 54.426 131.635 53.746C132.335 53.066 133.105 52.166 133.975 51.156C134.845 50.146 135.705 49.036 136.575 47.796L131.865 41.046L134.775 39.046L138.595 44.566C139.365 43.1938 140.034 41.7666 140.595 40.296C141.168 38.7988 141.574 37.2427 141.805 35.656V32.256H135.115C134.875 33.096 134.605 33.946 134.285 34.796C133.965 35.646 133.605 36.506 133.185 37.376L130.045 35.806C130.668 34.564 131.171 33.2646 131.545 31.926C131.925 30.586 132.225 29.376 132.445 28.286C132.694 27.0462 132.881 25.7946 133.005 24.536L136.515 24.756C136.515 24.816 136.515 25.216 136.395 25.936C136.275 26.656 136.185 27.586 135.975 28.716H146.075V32.256H145.355V35.896L145.305 36.026C145.011 38.1622 144.446 40.2523 143.625 42.246C142.84 44.1657 141.9 46.0185 140.815 47.786L146.885 56.586L144.005 58.586L138.665 50.916C137.795 52.076 136.955 53.136 136.125 54.076C135.295 55.016 134.565 55.826 133.905 56.506C133.245 57.186 132.705 57.706 132.265 58.096L131.525 58.766L129.255 56.076Z" fill="#0069E1"/>
<path d="M150.404 41.156C150.798 41.0094 151.278 40.7993 151.844 40.526C152.414 40.256 153.024 39.946 153.684 39.586C154.344 39.226 155.004 38.826 155.684 38.376C156.348 37.9324 156.985 37.4516 157.594 36.936H151.264V33.356H160.194C160.287 33.0309 160.33 32.6939 160.324 32.356V30.406H155.124L154.174 31.706C153.844 32.156 153.484 32.606 153.104 33.056L150.404 30.726C151.079 29.9673 151.704 29.1656 152.274 28.326C152.794 27.546 153.214 26.846 153.544 26.246C153.915 25.5712 154.249 24.8768 154.544 24.166L157.864 25.376C157.787 25.5175 157.73 25.6689 157.694 25.826C157.56 26.1746 157.393 26.5094 157.194 26.826H170.704V30.376H163.884V32.326C163.884 32.496 163.884 32.676 163.884 32.856C163.884 33.036 163.884 33.196 163.814 33.336H171.984V36.886H165.074L172.254 40.886L170.504 43.996L162.424 39.466L163.864 36.906H162.374C161.055 38.6659 159.429 40.1734 157.574 41.356C156.854 41.826 156.154 42.256 155.464 42.636C154.774 43.016 154.164 43.326 153.624 43.636C153.084 43.946 152.624 44.116 152.304 44.266C152.12 44.3534 151.93 44.427 151.734 44.486L151.114 42.826L150.404 41.156ZM187.804 55.296C187.812 55.8243 187.71 56.3484 187.505 56.8355C187.3 57.3225 186.997 57.7619 186.614 58.126C186.243 58.5039 185.799 58.8024 185.309 59.0036C184.819 59.2047 184.294 59.3042 183.764 59.296H153.144V45.036H184.254V44.226H187.804V55.296ZM156.694 48.606V50.356H184.254V48.606H156.694ZM156.694 55.746H183.764C183.83 55.7558 183.897 55.7503 183.96 55.7298C184.024 55.7093 184.081 55.6744 184.129 55.6279C184.176 55.5814 184.212 55.5245 184.234 55.4617C184.256 55.3989 184.263 55.3319 184.254 55.266V53.906H156.694V55.746ZM189.694 39.006C189.706 39.5408 189.607 40.0722 189.402 40.5664C189.197 41.0605 188.891 41.5066 188.504 41.876C188.133 42.2539 187.689 42.5524 187.199 42.7536C186.709 42.9547 186.184 43.0542 185.654 43.046H173.074V26.936H186.144V26.156H189.684L189.694 39.006ZM186.154 30.516H176.634V39.516H185.634C185.701 39.5184 185.767 39.5051 185.828 39.4774C185.889 39.4496 185.942 39.408 185.984 39.356C186.075 39.2543 186.125 39.1225 186.124 38.986L186.154 30.516Z" fill="#0069E1"/>
<path d="M201.633 25.506C201.116 26.804 200.508 28.0638 199.813 29.276C199.103 30.506 198.433 31.596 197.813 32.556C197.193 33.516 196.603 34.286 196.103 34.886C195.603 35.486 195.353 35.816 195.323 35.886L193.973 34.766L192.623 33.596C193.493 32.486 194.233 31.496 194.853 30.596C195.473 29.696 196.093 28.726 196.733 27.596C197.36 26.5066 197.908 25.3737 198.373 24.206L201.633 25.506ZM215.053 51.226H218.603V54.996C218.603 55.5255 218.498 56.0498 218.294 56.5384C218.09 57.027 217.791 57.4701 217.414 57.8422C217.037 58.2143 216.59 58.5079 216.099 58.706C215.608 58.904 215.083 59.0026 214.553 58.996H197.273V36.156H212.583V35.346H216.133V45.856C216.133 46.9169 215.712 47.9343 214.961 48.6844C214.211 49.4346 213.194 49.856 212.133 49.856H204.503V46.306H212.143C212.21 46.3089 212.278 46.2969 212.34 46.271C212.402 46.2451 212.458 46.2058 212.503 46.156C212.593 46.0502 212.639 45.9145 212.633 45.776V39.666H200.823V55.426H214.503C214.863 55.426 215.043 55.256 215.043 54.926L215.053 51.226ZM215.323 24.556L220.533 33.856L217.433 35.606L213.253 28.106H202.393V24.556H215.323ZM228.743 24.556H232.293V55.076C232.293 56.1369 231.872 57.1543 231.121 57.9044C230.371 58.6546 229.354 59.076 228.293 59.076H221.503V55.536H228.243C228.31 55.5444 228.379 55.5372 228.443 55.5148C228.507 55.4925 228.564 55.4558 228.612 55.4074C228.659 55.359 228.695 55.3003 228.716 55.2359C228.737 55.1714 228.743 55.103 228.733 55.036L228.743 24.556ZM225.243 52.156H221.693V28.456H225.243V52.156Z" fill="#0069E1"/>
<path d="M243.744 46.156C243.684 46.576 243.574 47.226 243.424 48.086C243.239 49.102 242.985 50.1043 242.664 51.086C242.262 52.3376 241.792 53.5662 241.254 54.766C240.622 56.1659 239.862 57.5048 238.984 58.766L236.064 56.766C236.777 55.7259 237.409 54.6327 237.954 53.496C238.42 52.5198 238.831 51.5183 239.184 50.496C239.467 49.6635 239.7 48.8154 239.884 47.956C240.034 47.206 240.134 46.606 240.194 46.156H237.504V42.616H246.214V40.146H249.764V42.616H258.064V46.156H249.764V55.046C249.775 55.5821 249.675 56.1147 249.47 56.6104C249.266 57.106 248.961 57.5539 248.574 57.926C248.2 58.2979 247.755 58.5919 247.265 58.791C246.776 58.9901 246.253 59.0903 245.724 59.086H241.994V55.546H245.724C245.792 55.5544 245.86 55.5472 245.924 55.5249C245.988 55.5025 246.046 55.4658 246.093 55.4174C246.141 55.369 246.176 55.3103 246.197 55.2458C246.218 55.1814 246.224 55.113 246.214 55.046V46.156H243.744ZM254.504 35.786H259.304V39.336H236.334V35.786H241.334L239.434 32.156L242.574 30.446L245.404 35.746H250.504L253.334 30.446L256.434 32.156L254.504 35.786ZM249.424 26.786H258.004V30.336H237.504V26.786H245.404L244.684 25.486L247.784 23.826L249.424 26.786ZM258.364 57.896L254.954 58.836L251.854 47.576L255.264 46.626L258.364 57.896ZM264.734 29.386V36.386H275.644V39.936H273.354V58.606H269.814V39.916H264.704C264.644 42.636 264.484 45.136 264.214 47.436C263.944 49.736 263.654 51.736 263.334 53.436C263.014 55.136 262.734 56.436 262.464 57.436C262.194 58.436 262.044 58.956 262.014 59.046L258.644 58.046C258.644 58.046 258.774 57.506 259.024 56.516C259.274 55.526 259.564 54.166 259.884 52.426C260.204 50.686 260.484 48.646 260.754 46.276C261.036 43.7291 261.173 41.1684 261.164 38.606V25.866H268.924C269.64 25.8644 270.355 25.8177 271.064 25.726C271.764 25.636 272.394 25.546 272.944 25.436C273.494 25.326 274.124 25.186 274.804 25.006L275.804 28.426L275.154 28.576C274.754 28.686 274.234 28.796 273.604 28.916C272.974 29.036 272.254 29.146 271.424 29.256C270.598 29.3564 269.767 29.4065 268.934 29.406L264.734 29.386Z" fill="#0069E1"/>
<path d="M108.203 70.046C108.453 70.186 108.713 70.316 108.973 70.436C109.24 70.5506 109.514 70.6475 109.793 70.726C110.081 70.8079 110.376 70.8681 110.673 70.906C111.005 70.9476 111.339 70.9676 111.673 70.966C112.031 70.9693 112.389 70.9425 112.743 70.886C112.996 70.844 113.242 70.7666 113.473 70.656C113.636 70.5776 113.774 70.4566 113.873 70.306C113.959 70.1793 114.005 70.0293 114.003 69.876C114.006 69.7555 113.978 69.6363 113.922 69.5296C113.866 69.4229 113.784 69.3322 113.683 69.266C113.38 69.0922 113.031 69.0155 112.683 69.046C112.48 69.0318 112.276 69.0318 112.073 69.046L111.423 69.126L110.773 69.206C110.57 69.22 110.366 69.22 110.163 69.206C109.859 69.2068 109.556 69.1664 109.263 69.086C108.99 69.0133 108.732 68.8913 108.503 68.726C108.273 68.5613 108.087 68.3433 107.96 68.0908C107.833 67.8382 107.769 67.5587 107.773 67.276C107.77 67.083 107.797 66.8907 107.853 66.706C107.903 66.5123 107.988 66.3294 108.103 66.166C108.225 65.9849 108.373 65.8231 108.543 65.686C108.744 65.5282 108.966 65.4002 109.203 65.306C109.492 65.1858 109.794 65.0986 110.103 65.046C110.486 64.9823 110.875 64.9522 111.263 64.956C111.573 64.956 111.893 64.956 112.203 65.006C112.513 65.056 112.833 65.096 113.133 65.156C113.433 65.216 113.723 65.296 113.993 65.376C114.259 65.4605 114.519 65.5607 114.773 65.676L114.153 66.816C113.953 66.736 113.743 66.656 113.513 66.586C113.28 66.5075 113.043 66.4408 112.803 66.386C112.553 66.336 112.293 66.296 112.033 66.266C111.764 66.2337 111.494 66.217 111.223 66.216C110.887 66.2061 110.552 66.2363 110.223 66.306C110.009 66.3403 109.803 66.4114 109.613 66.516C109.487 66.5891 109.38 66.6921 109.303 66.816C109.25 66.9142 109.222 67.0243 109.223 67.136C109.223 67.2391 109.248 67.3407 109.297 67.4315C109.346 67.5223 109.417 67.5995 109.503 67.656C109.765 67.8028 110.064 67.8689 110.363 67.846H110.893L111.533 67.776L112.213 67.696H112.883C113.254 67.6914 113.625 67.7385 113.983 67.836C114.275 67.9118 114.547 68.0481 114.783 68.236C114.992 68.4021 115.16 68.6143 115.273 68.856C115.385 69.1145 115.44 69.3943 115.433 69.676C115.442 70.0519 115.345 70.4228 115.153 70.746C114.959 71.0734 114.688 71.3482 114.363 71.546C113.977 71.7786 113.554 71.9443 113.113 72.036C112.578 72.1527 112.031 72.2097 111.483 72.206C111.099 72.2082 110.714 72.1849 110.333 72.136C109.966 72.0882 109.602 72.018 109.243 71.926C108.902 71.8395 108.568 71.7293 108.243 71.596C107.946 71.4721 107.655 71.3318 107.373 71.176L108.203 70.046Z" fill="#0069E1"/>
<path d="M117.055 65.156H118.505L121.045 67.706L123.595 65.156H125.015V72.156H123.595V67.156L121.045 69.606L118.505 67.096V72.096H117.085L117.055 65.156Z" fill="#0069E1"/>
<path d="M129.364 65.156H130.864L134.254 72.156H132.764L132.204 70.976H128.114L127.574 72.156H126.074L129.364 65.156ZM131.644 69.816L130.124 66.636L128.654 69.816H131.644Z" fill="#0069E1"/>
<path d="M135.344 65.156H138.904C139.376 65.1496 139.847 65.2068 140.304 65.326C140.669 65.4146 141.01 65.5818 141.304 65.816C141.559 66.0192 141.759 66.2842 141.884 66.586C142.013 66.9035 142.077 67.2434 142.074 67.586C142.076 67.8395 142.043 68.092 141.974 68.336C141.919 68.5641 141.824 68.7808 141.694 68.976C141.559 69.1806 141.39 69.36 141.194 69.506C140.985 69.6681 140.752 69.7963 140.504 69.886L142.004 72.156H140.274L138.954 70.156H136.764V72.156H135.344V65.156ZM138.944 68.936C139.18 68.9395 139.416 68.9092 139.644 68.846C139.831 68.793 140.005 68.701 140.154 68.576C140.284 68.4641 140.386 68.3239 140.454 68.166C140.525 67.9917 140.559 67.8043 140.554 67.616C140.564 67.4449 140.533 67.2739 140.463 67.1172C140.394 66.9606 140.288 66.823 140.154 66.716C139.799 66.4743 139.372 66.3613 138.944 66.396H136.764V68.936H138.944Z" fill="#0069E1"/>
<path d="M145.844 66.376H143.254V65.156H149.844V66.406H147.264V72.156H145.844V66.376Z" fill="#0069E1"/>
<path d="M150.934 68.586C150.929 68.1049 151.025 67.6282 151.214 67.186C151.402 66.7573 151.682 66.375 152.034 66.066C152.416 65.7311 152.862 65.4761 153.344 65.316C153.908 65.1279 154.5 65.0366 155.094 65.046C155.622 65.0382 156.15 65.0953 156.664 65.216C157.127 65.3245 157.572 65.4997 157.984 65.736L157.334 66.816C157.202 66.7302 157.062 66.6598 156.914 66.606C156.75 66.5363 156.579 66.4827 156.404 66.446C156.22 66.3987 156.033 66.362 155.844 66.336H155.274C154.861 66.3264 154.449 66.3839 154.054 66.506C153.727 66.6054 153.422 66.7648 153.154 66.976C152.918 67.1708 152.73 67.4171 152.604 67.696C152.475 67.9909 152.409 68.3092 152.409 68.631C152.409 68.9527 152.475 69.271 152.604 69.566C152.734 69.8563 152.929 70.1129 153.174 70.316C153.443 70.5389 153.752 70.7086 154.084 70.816C154.48 70.9326 154.891 70.9899 155.304 70.986C155.507 71.0012 155.711 71.0012 155.914 70.986C156.113 70.9576 156.31 70.9175 156.504 70.866C156.694 70.806 156.884 70.746 157.054 70.676L157.544 70.436L158.204 71.506C157.793 71.7664 157.344 71.962 156.874 72.086C156.353 72.2291 155.814 72.2997 155.274 72.296C154.633 72.3042 153.995 72.2097 153.384 72.016C152.885 71.8498 152.423 71.5883 152.024 71.246C151.665 70.9275 151.385 70.5306 151.204 70.086C151.007 69.6112 150.915 69.0996 150.934 68.586Z" fill="#0069E1"/>
<path d="M159.774 65.156H161.194V66.986H165.504V65.156H166.934V72.156H165.504V68.156H161.154V72.156H159.734L159.774 65.156Z" fill="#0069E1"/>
<path d="M171.345 65.156H172.855L176.235 72.156H174.745L174.185 70.976H170.095L169.555 72.156H168.055L171.345 65.156ZM173.625 69.816L172.115 66.636L170.635 69.816H173.625Z" fill="#0069E1"/>
<path d="M177.145 65.156H178.575V72.156H177.145V65.156Z" fill="#0069E1"/>
<path d="M180.373 65.156H181.793L186.153 67.446V65.156H187.573V72.156H186.153V68.946L181.793 66.676V72.156H180.373V65.156Z" fill="#0069E1"/>
<path d="M192.424 65.156H193.854V72.156H192.424V65.156Z" fill="#0069E1"/>
<path d="M195.654 65.156H197.074L201.434 67.446V65.156H202.854V72.156H201.434V68.946L197.074 66.676V72.156H195.654V65.156Z" fill="#0069E1"/>
<path d="M204.824 65.156H206.244L210.614 67.446V65.156H212.034V72.156H210.614V68.946L206.244 66.676V72.156H204.824V65.156Z" fill="#0069E1"/>
<path d="M213.594 68.606C213.589 68.1078 213.688 67.6141 213.884 67.156C214.074 66.7255 214.354 66.3403 214.704 66.026C215.069 65.6987 215.498 65.4502 215.964 65.296C217.026 64.9493 218.171 64.9493 219.234 65.296C219.7 65.4502 220.129 65.6987 220.494 66.026C220.847 66.3377 221.127 66.7236 221.314 67.156C221.51 67.6141 221.608 68.1078 221.604 68.606C221.608 69.1074 221.51 69.6043 221.314 70.066C221.128 70.5045 220.848 70.897 220.494 71.216C220.129 71.5464 219.7 71.7983 219.234 71.956C218.174 72.3156 217.024 72.3156 215.964 71.956C215.498 71.7983 215.069 71.5464 214.704 71.216C214.353 70.8943 214.074 70.5025 213.884 70.066C213.688 69.6043 213.59 69.1074 213.594 68.606ZM215.014 68.606C215.008 68.9499 215.076 69.291 215.214 69.606C215.34 69.8877 215.524 70.1398 215.754 70.346C215.994 70.5544 216.273 70.714 216.574 70.816C216.896 70.9274 217.233 70.9848 217.574 70.986C217.914 70.9865 218.253 70.929 218.574 70.816C218.875 70.714 219.154 70.5544 219.394 70.346C219.634 70.1292 219.824 69.8634 219.951 69.5666C220.079 69.2698 220.141 68.949 220.134 68.626C220.147 68.2816 220.078 67.9389 219.934 67.626C219.81 67.3459 219.625 67.0966 219.394 66.896C219.155 66.6902 218.876 66.5369 218.574 66.446C218.252 66.3364 217.914 66.2823 217.574 66.286C217.234 66.284 216.896 66.338 216.574 66.446C216.272 66.5369 215.993 66.6902 215.754 66.896C215.522 67.0966 215.338 67.3459 215.214 67.626C215.077 67.9344 215.009 68.2687 215.014 68.606Z" fill="#0069E1"/>
<path d="M222.244 65.156H223.814L226.014 70.496L228.214 65.156H229.784L226.724 72.156H225.314L222.244 65.156Z" fill="#0069E1"/>
<path d="M233.223 65.156H234.733L238.123 72.156H236.623L236.063 70.976H231.983L231.433 72.156H229.943L233.223 65.156ZM235.503 69.816L233.993 66.636L232.503 69.786L235.503 69.816Z" fill="#0069E1"/>
<path d="M241.314 66.376H238.734V65.156H245.324V66.406H242.734V72.156H241.314V66.376Z" fill="#0069E1"/>
<path d="M246.654 65.156H248.084V72.156H246.654V65.156Z" fill="#0069E1"/>
<path d="M249.504 68.606C249.5 68.1078 249.598 67.6141 249.794 67.156C249.981 66.7236 250.261 66.3377 250.614 66.026C250.979 65.6987 251.408 65.4502 251.874 65.296C252.933 64.9494 254.075 64.9494 255.134 65.296C255.604 65.4478 256.036 65.6965 256.404 66.026C256.754 66.3403 257.034 66.7254 257.224 67.156C257.42 67.6141 257.518 68.1078 257.514 68.606C257.518 69.1074 257.42 69.6043 257.224 70.066C257.034 70.5025 256.755 70.8943 256.404 71.216C256.037 71.5485 255.604 71.8006 255.134 71.956C254.077 72.3156 252.931 72.3156 251.874 71.956C251.408 71.7983 250.979 71.5464 250.614 71.216C250.26 70.897 249.98 70.5045 249.794 70.066C249.598 69.6043 249.5 69.1074 249.504 68.606ZM250.924 68.606C250.915 68.9491 250.979 69.2903 251.114 69.606C251.241 69.8902 251.428 70.1429 251.664 70.346C251.904 70.5544 252.183 70.714 252.484 70.816C252.805 70.929 253.143 70.9865 253.484 70.986C253.824 70.9848 254.162 70.9273 254.484 70.816C254.785 70.714 255.064 70.5544 255.304 70.346C255.534 70.1397 255.718 69.8877 255.844 69.606C255.982 69.291 256.05 68.9499 256.044 68.606C256.052 68.262 255.983 67.9206 255.844 67.606C255.72 67.3259 255.536 67.0766 255.304 66.876C255.065 66.6702 254.786 66.5169 254.484 66.426C254.162 66.318 253.824 66.2639 253.484 66.266C253.144 66.2622 252.806 66.3164 252.484 66.426C252.182 66.5169 251.903 66.6702 251.664 66.876C251.427 67.0736 251.239 67.3235 251.114 67.606C250.971 67.9197 250.899 68.2612 250.904 68.606H250.924Z" fill="#0069E1"/>
<path d="M259.064 65.156H260.504L264.864 67.446V65.156H266.284V72.156H264.864V68.946L260.504 66.646V72.156H259.084L259.064 65.156Z" fill="#0069E1"/>
<path d="M268.563 70.046C268.823 70.186 269.083 70.316 269.343 70.436C269.607 70.549 269.878 70.6459 270.153 70.726C270.442 70.8071 270.736 70.8672 271.033 70.906C271.365 70.9476 271.699 70.9676 272.033 70.966C272.395 70.9689 272.756 70.9421 273.113 70.886C273.363 70.8426 273.605 70.7652 273.833 70.656C273.999 70.5791 274.141 70.458 274.243 70.306C274.325 70.1773 274.37 70.0286 274.373 69.876C274.376 69.7555 274.348 69.6363 274.292 69.5296C274.236 69.4229 274.154 69.3321 274.053 69.266C273.75 69.0922 273.401 69.0155 273.053 69.046C272.847 69.0317 272.64 69.0317 272.433 69.046L271.783 69.126L271.133 69.206C270.934 69.2202 270.733 69.2202 270.533 69.206C270.229 69.2068 269.927 69.1664 269.633 69.086C269.357 69.0132 269.096 68.8912 268.863 68.726C268.634 68.5613 268.447 68.3433 268.32 68.0907C268.193 67.8382 268.129 67.5587 268.133 67.276C268.135 67.0833 268.162 66.8918 268.213 66.706C268.268 66.5139 268.352 66.3317 268.463 66.166C268.592 65.987 268.743 65.8256 268.913 65.686C269.111 65.524 269.334 65.3956 269.573 65.306C269.877 65.2216 270.189 65.1713 270.503 65.156C270.887 65.0927 271.275 65.0626 271.663 65.066C271.983 65.066 272.293 65.066 272.663 65.116C273.033 65.166 273.283 65.206 273.583 65.266C273.883 65.326 274.173 65.406 274.453 65.486C274.716 65.5687 274.974 65.669 275.223 65.786L274.603 66.926C274.403 66.846 274.193 66.766 273.973 66.696C273.753 66.626 273.503 66.556 273.253 66.496C273.003 66.436 272.753 66.406 272.483 66.376C272.218 66.3441 271.951 66.3274 271.683 66.326C271.348 66.317 271.012 66.3472 270.683 66.416C270.473 66.4518 270.27 66.5228 270.083 66.626C269.955 66.6961 269.848 66.7998 269.773 66.926C269.717 67.0236 269.686 67.1335 269.683 67.246C269.683 67.3491 269.708 67.4507 269.757 67.5415C269.806 67.6323 269.877 67.7094 269.963 67.766C270.225 67.9117 270.524 67.9777 270.823 67.956H271.363L271.993 67.886L272.673 67.806H273.353C273.721 67.8023 274.088 67.8494 274.443 67.946C274.736 68.0197 275.009 68.1562 275.243 68.346C275.455 68.5093 275.623 68.7223 275.733 68.966C275.849 69.2237 275.907 69.5036 275.903 69.786C275.907 70.1612 275.81 70.5306 275.623 70.856C275.423 71.1814 275.149 71.4554 274.823 71.656C274.439 71.8915 274.016 72.0573 273.573 72.146C273.041 72.2627 272.498 72.3198 271.953 72.316C271.566 72.3182 271.178 72.2948 270.793 72.246C270.429 72.1991 270.068 72.129 269.713 72.036C269.066 71.869 268.444 71.6168 267.863 71.286L268.563 70.046Z" fill="#0069E1"/>
<defs>
<linearGradient id="paint0_linear_102_640" x1="25.0848" y1="49.806" x2="70.4048" y2="49.806" gradientUnits="userSpaceOnUse">
<stop stop-color="#0069E1" stop-opacity="0"/>
<stop offset="1" stop-color="#0069E1"/>
</linearGradient>
<linearGradient id="paint1_linear_102_640" x1="44.7142" y1="38.426" x2="24.8342" y2="72.786" gradientUnits="userSpaceOnUse">
<stop stop-color="#0069E1" stop-opacity="0"/>
<stop offset="1" stop-color="#0069E1"/>
</linearGradient>
<linearGradient id="paint2_linear_102_640" x1="43.2746" y1="58.886" x2="23.0846" y2="23.076" gradientUnits="userSpaceOnUse">
<stop stop-color="#0069E1" stop-opacity="0"/>
<stop offset="1" stop-color="#0069E1"/>
</linearGradient>
</defs>
</svg>
