<svg width="100" height="100" viewBox="0 0 100 100" fill="none" xmlns="http://www.w3.org/2000/svg">
<path d="M74.0547 32.656H54.5748L61.9248 45.416H74.0448C75.2117 45.416 76.3309 45.8796 77.156 46.7047C77.9812 47.5299 78.4448 48.6491 78.4448 49.816C78.4448 50.983 77.9812 52.1021 77.156 52.9273C76.3309 53.7524 75.2117 54.216 74.0448 54.216H37.7548L30.3848 66.976H74.0348C78.5859 66.976 82.9506 65.1681 86.1687 61.95C89.3868 58.7318 91.1948 54.3671 91.1948 49.816C91.1948 45.2649 89.3868 40.9002 86.1687 37.6821C82.9506 34.4639 78.5859 32.656 74.0348 32.656H74.0547Z" fill="url(#paint0_linear_81_587)"/>
<path d="M11.3042 68.836C9.02597 72.7771 8.40668 77.4618 9.58253 81.8596C10.7584 86.2573 13.6331 90.0078 17.5742 92.286C21.5153 94.5642 26.2 95.1835 30.5978 94.0077C34.9955 92.8318 38.746 89.9571 41.0242 86.016L50.7642 69.156H36.0442L29.9742 79.646C29.3819 80.6389 28.4226 81.3588 27.3038 81.65C26.1849 81.9413 24.9964 81.7804 23.9952 81.2023C22.994 80.6242 22.2606 79.6752 21.9535 78.5606C21.6464 77.446 21.7903 76.2553 22.3542 75.246L42.1942 40.916L34.8342 28.156L11.3042 68.836Z" fill="url(#paint1_linear_81_587)"/>
<path d="M41.1646 13.586C40.0385 11.6339 38.539 9.92269 36.7516 8.55012C34.9642 7.17755 32.9239 6.17047 30.7473 5.58639C28.5707 5.00231 26.3004 4.85266 24.0659 5.14599C21.8315 5.43932 19.6767 6.16988 17.7246 7.29597C15.7725 8.42205 14.0613 9.9216 12.6888 11.709C11.3162 13.4964 10.3091 15.5367 9.72506 17.7133C9.14098 19.8899 8.99133 22.1602 9.28466 24.3946C9.57799 26.6291 10.3085 28.7839 11.4346 30.736L21.1646 47.606L28.5046 34.856L22.5046 24.356C21.9212 23.3442 21.7635 22.142 22.0664 21.014C22.3693 19.886 23.1078 18.9244 24.1196 18.341C25.1314 17.7575 26.3336 17.5998 27.4616 17.9027C28.5896 18.2056 29.5512 18.9442 30.1346 19.956L34.8546 28.136L42.2146 40.896L49.8846 54.206H64.6046L41.1646 13.586Z" fill="url(#paint2_linear_81_587)"/>
<defs>
<linearGradient id="paint0_linear_81_587" x1="29.0848" y1="49.806" x2="74.4048" y2="49.806" gradientUnits="userSpaceOnUse">
<stop stop-color="#0069E1" stop-opacity="0"/>
<stop offset="1" stop-color="#0069E1"/>
</linearGradient>
<linearGradient id="paint1_linear_81_587" x1="48.7142" y1="38.426" x2="28.8342" y2="72.786" gradientUnits="userSpaceOnUse">
<stop stop-color="#0069E1" stop-opacity="0"/>
<stop offset="1" stop-color="#0069E1"/>
</linearGradient>
<linearGradient id="paint2_linear_81_587" x1="47.2746" y1="58.886" x2="27.0846" y2="23.076" gradientUnits="userSpaceOnUse">
<stop stop-color="#0069E1" stop-opacity="0"/>
<stop offset="1" stop-color="#0069E1"/>
</linearGradient>
</defs>
</svg>
